# xmcd CD database file
#
# Track frame offsets:
#	150
#	12342
#	27460
#	41794
#	58112
#	70764
#	90887
#	101653
#	116497
#	130854
#	143532
#	152101
#	164832
#	175417
#	187932
#	199788
#	207835
#	221473
#	236635
#	250468
#	262402
#	278735
#	290385
#	308538
#	323150
#
# Disc length: 4523 seconds
#
# Revision: 0
# Processed by: cddbd v1.5.2PL0 Copyright (c) Steve Scherf et al.
# Submitted via: CDex 1.51
#
DISCID=7211a919
DTITLE=Carmen McRae - A Collection Of Her Finest Decca Recordings 1955-1958 CD3
DYEAR=1955
DGENRE=Jazz
TTITLE0=Love is here to stay
TTITLE1=Good morning heartache
TTITLE2=Speak low
TTITLE3=Lush life
TTITLE4=I'm a dreamer
TTITLE5=The night we called it a day
TTITLE6=I'm putting all my eggs in one basket
TTITLE7=My future just passed
TTITLE8=My one and only love
TTITLE9=I was doing all right
TTITLE10=If I were a bell
TTITLE11=If love were all
TTITLE12=Perdido
TTITLE13=The eagle and me
TTITLE14=You took advantage of me
TTITLE15=What can I say after I say I'm sorry
TTITLE16=I remember Clifford
TTITLE17=It will have to do until the real thing comes along
TTITLE18=You're the top
TTITLE19=Last night when we were young
TTITLE20=Guess who I saw today
TTITLE21=Even if it breaks my heart
TTITLE22=Dream of life
TTITLE23=All this could lead to love
TTITLE24=Bye bye blackbird
EXTD=YEAR: 1955
EXTT0=
EXTT1=
EXTT2=
EXTT3=
EXTT4=
EXTT5=
EXTT6=
EXTT7=
EXTT8=
EXTT9=
EXTT10=
EXTT11=
EXTT12=
EXTT13=
EXTT14=
EXTT15=
EXTT16=
EXTT17=
EXTT18=
EXTT19=
EXTT20=
EXTT21=
EXTT22=
EXTT23=
EXTT24=
PLAYORDER=
